<svg width="200px" height="200px" viewBox="0 0 413 421" version="1.1" xmlns="http://www.w3.org/2000/svg" xmlns:xlink="http://www.w3.org/1999/xlink">
    <!-- Generator: Sketch 64 (93537) - https://sketch.com --><!-- Generated by uplus.hikvision.com.cn -->
    <title>Artboard</title>
    <desc>Created with Sketch.</desc>
    <defs>
        <linearGradient x1="5.31480488%" y1="103.568918%" x2="90.314733%" y2="1.57178174%" id="linearGradient-1">
            <stop stop-color="#1F80F6" offset="0%"/>
            <stop stop-color="#10E2E2" offset="100%"/>
        </linearGradient>
        <linearGradient x1="-46.3291986%" y1="70.1434575%" x2="96.0036461%" y2="42.0659757%" id="linearGradient-2">
            <stop stop-color="#1F80F6" offset="0%"/>
            <stop stop-color="#10E2E2" offset="100%"/>
        </linearGradient>
        <path d="M340.099,1 C337.092,1.003 334.046,1.26 330.983,1.788 L330.983,1.788 C330.912,1.8 330.841,1.808 330.768,1.82 L330.768,1.82 C330.539,1.861 330.324,1.928 330.098,1.971 L330.098,1.971 C329.18,2.153 328.272,2.356 327.376,2.581 L327.376,2.581 C302.503,8.627 285.492,31.344 286.35,56.562 L286.35,56.562 C286.407,57.325 286.44,58.084 286.468,58.846 L286.468,58.846 C287.698,90.902 265.135,119.751 232.656,125.477 L232.656,125.477 C225.374,126.761 218.165,126.765 211.247,125.682 L211.247,125.682 C204.739,125.324 198.093,125.684 191.396,126.864 L191.396,126.864 C144.111,135.202 112.538,180.293 120.875,227.579 L120.875,227.579 C124.57,248.533 135.493,266.391 150.617,279.069 L150.617,279.069 C165.727,291.761 185.212,299.417 206.489,299.417 L206.489,299.417 C254.504,299.417 293.427,260.493 293.427,212.478 L293.427,212.478 C293.427,205.679 292.628,199.072 291.145,192.724 L291.145,192.724 C288.877,186.099 287.629,178.999 287.628,171.605 L287.628,171.605 C287.628,138.625 312.121,111.394 343.904,107.039 L343.904,107.039 C344.658,106.936 345.412,106.836 346.173,106.758 L346.173,106.758 C371.155,103.226 390.576,82.528 392.209,56.984 L392.209,56.984 C392.276,56.061 392.318,55.132 392.338,54.198 L392.338,54.198 C392.341,53.967 392.369,53.742 392.369,53.51 L392.369,53.51 C392.369,53.437 392.364,53.366 392.364,53.293 L392.364,53.293 C392.3,37.199 385.159,22.782 373.904,12.965 L373.904,12.965 C364.555,5.42 352.738,1.014 340.217,1 L340.217,1 L340.099,1 Z" id="path-3"/>
    </defs>
    <g id="Artboard" stroke="none" stroke-width="1" fill="none" fill-rule="evenodd">
        <path d="M192.37,7.953 L192.365,7.87 C84.915,15.126 0,104.569 0,213.859 L0,213.859 C0,327.894 92.444,420.337 206.478,420.337 L206.478,420.337 C320.512,420.337 412.957,327.894 412.957,213.859 L412.957,213.859 C412.957,206.392 412.551,199.022 411.778,191.76 L411.778,191.76 C411.679,190.842 411.559,189.929 411.447,189.015 L411.447,189.015 C411.412,188.636 411.359,188.259 411.309,187.88 L411.309,187.88 C411.241,187.299 411.178,186.72 411.099,186.142 L411.099,186.142 C410.891,185.197 410.633,184.256 410.337,183.319 L410.337,183.319 C409.994,182.166 409.601,181.02 409.111,179.889 L409.111,179.889 C402.531,164.752 384.926,157.815 369.788,164.395 L369.788,164.395 C357.043,169.935 350.148,183.291 352.204,196.41 L352.204,196.41 C352.883,202.137 353.186,207.948 353.186,213.859 L353.186,213.859 C353.186,294.883 287.503,360.567 206.478,360.567 L206.478,360.567 C125.454,360.567 59.77,294.883 59.77,213.859 L59.77,213.859 C59.77,136.555 119.576,73.281 195.434,67.626 L195.434,67.626 C195.54,67.628 195.646,67.642 195.754,67.642 L195.754,67.642 C212.259,67.642 225.638,54.262 225.638,37.758 L225.638,37.758 C225.638,22.124 213.629,9.314 198.336,8.003 L198.336,8.003 C197.263,7.886 196.177,7.817 195.074,7.817 L195.074,7.817 C194.161,7.817 193.262,7.873 192.37,7.953" id="Fill-1" fill="url(#linearGradient-1)"/>
        <mask id="mask-4" fill="white">
            <use xlink:href="#path-3"/>
        </mask>
        <use id="Clip-5" fill="url(#linearGradient-2)" xlink:href="#path-3"/>
    </g>
</svg>